# xmcd
#
# Track frame offsets:
#	150
#	5687
#	15613
#	29526
#	45476
#	66181
#	90619
#	109108
#	127713
#	145977
#	180297
#	207812
#	234512
#	250852
#	274608
#	298023
#
# Disc length: 4382 seconds
#
# Revision: 5
# Processed by: cddbd v1.5.2PL0 Copyright (c) Steve Scherf et al.
# Submitted via: dBpowerAMP V4.0
#
DISCID=d5111c10
DTITLE=Alicia Keys - Unplugged
DYEAR=2005
DGENRE=R&B
TTITLE0=Intro Alicia's Prayer [Acapella]
TTITLE1=Karma
TTITLE2=Heartburn
TTITLE3=A Woman's Worth [Live]
TTITLE4=Unbreakable
TTITLE5=How Come You Don't Call Me
TTITLE6=If I Was Your Woman
TTITLE7=If I Ain't Got You
TTITLE8=Every Little Bit Hurts
TTITLE9=Streets Of New York [City Life]
TTITLE10=Wild Horses [featuring Adam Levine]
TTITLE11=Diary
TTITLE12=You Don't Know My Name
TTITLE13=Stolen Moments
TTITLE14=Fallin'
TTITLE15=Welcome To Jamrock [with Damian Marley, Mos Def, Comon and Friends]
EXTD=
EXTT0=
EXTT1=
EXTT2=
EXTT3=
EXTT4=
EXTT5=
EXTT6=
EXTT7=
EXTT8=
EXTT9=
EXTT10=
EXTT11=
EXTT12=
EXTT13=
EXTT14=
EXTT15=
PLAYORDER=
